<?xml version="1.0" encoding="utf-8"?>
<!-- Generator: Adobe Illustrator 16.0.0, SVG Export Plug-In . SVG Version: 6.00 Build 0)  -->
<!DOCTYPE svg PUBLIC "-//W3C//DTD SVG 1.1//EN" "http://www.w3.org/Graphics/SVG/1.1/DTD/svg11.dtd">
<svg version="1.1" id="Layer_1" xmlns="http://www.w3.org/2000/svg" xmlns:xlink="http://www.w3.org/1999/xlink" x="0px" y="0px"
	 width="800px" height="600px" viewBox="0 0 800 600" enable-background="new 0 0 800 600" xml:space="preserve">
<polygon points="425.106,202.96 425.106,252.96 381.805,277.96 381.805,227.96 "/>
<polygon points="338.503,202.96 338.503,252.96 381.805,277.96 381.805,227.96 "/>
<polygon points="338.503,202.96 381.805,227.96 425.107,202.96 381.805,177.96 "/>
<polygon points="251.897,202.96 251.897,252.96 208.596,277.96 208.596,227.96 "/>
<polygon points="165.294,202.96 165.294,252.96 208.596,277.96 208.596,227.96 "/>
<polygon points="165.294,202.96 208.596,227.96 251.898,202.96 208.596,177.96 "/>
<polygon points="381.803,127.96 381.803,177.96 338.501,202.96 338.501,152.96 "/>
<polygon points="295.2,127.96 295.2,177.96 338.501,202.96 338.501,152.96 "/>
<polygon points="295.2,127.96 338.501,152.96 381.804,127.96 338.501,102.96 "/>
<polygon points="338.502,252.96 338.502,202.96 295.201,177.96 295.201,227.96 "/>
<polygon points="251.899,252.96 251.899,202.96 295.201,177.96 295.201,227.96 "/>
<polygon points="251.899,252.959 295.201,227.959 338.503,252.96 295.201,277.96 "/>
<polygon points="511.709,252.96 511.709,202.96 468.408,177.96 468.408,227.96 "/>
<polygon points="425.106,252.96 425.106,202.96 468.408,177.96 468.408,227.96 "/>
<polygon points="425.106,252.959 468.408,227.959 511.711,252.96 468.408,277.96 "/>
<polygon points="295.2,327.977 295.2,277.977 251.898,252.977 251.898,302.977 "/>
<polygon points="208.597,327.977 208.597,277.977 251.898,252.977 251.898,302.977 "/>
<polygon points="208.597,327.977 251.898,302.977 295.201,327.977 251.898,352.977 "/>
<polygon points="468.406,177.96 468.406,127.96 425.105,102.96 425.105,152.96 "/>
<polygon points="381.804,177.96 381.804,127.96 425.105,102.96 425.105,152.96 "/>
<polygon points="381.804,177.96 425.105,152.96 468.408,177.96 425.105,202.96 "/>
<polygon points="468.408,277.976 468.408,327.976 425.107,352.976 425.107,302.976 "/>
<polygon points="381.806,277.976 381.806,327.976 425.107,352.976 425.107,302.976 "/>
<polygon points="381.806,277.976 425.107,302.977 468.41,277.976 425.107,252.976 "/>
<polygon points="381.804,277.976 381.804,327.976 338.503,352.976 338.503,302.976 "/>
<polygon points="295.201,277.976 295.201,327.976 338.503,352.976 338.503,302.976 "/>
<polygon points="295.201,277.976 338.503,302.977 381.806,277.976 338.503,252.976 "/>
<polygon points="208.596,327.977 208.596,277.977 165.294,252.977 165.294,302.977 "/>
<polygon points="121.993,327.977 121.993,277.977 165.294,252.977 165.294,302.977 "/>
<polygon points="121.993,327.977 165.294,302.977 208.597,327.977 165.294,352.977 "/>
<polygon points="208.595,177.96 208.595,127.96 165.294,102.96 165.294,152.96 "/>
<polygon points="121.992,177.96 121.992,127.96 165.294,102.96 165.294,152.96 "/>
<polygon points="121.992,177.96 165.294,152.96 208.596,177.96 165.294,202.96 "/>
<polygon points="165.293,202.96 165.293,252.96 121.992,277.96 121.992,227.96 "/>
<polygon points="78.69,202.96 78.69,252.96 121.992,277.96 121.992,227.96 "/>
<polygon points="78.69,202.961 121.992,227.961 165.294,202.96 121.992,177.96 "/>
<polygon points="555.012,127.96 555.012,177.96 511.711,202.96 511.711,152.96 "/>
<polygon points="468.408,127.96 468.408,177.96 511.711,202.96 511.711,152.96 "/>
<polygon points="468.408,127.96 511.711,152.961 555.014,127.96 511.711,102.96 "/>
<polygon points="598.314,202.959 598.314,252.959 555.014,277.959 555.014,227.959 "/>
<polygon points="511.711,202.959 511.711,252.959 555.014,277.959 555.014,227.959 "/>
<polygon points="511.711,202.96 555.014,227.96 598.316,202.959 555.014,177.959 "/>
<polygon points="555.012,327.977 555.012,277.977 511.711,252.977 511.711,302.977 "/>
<polygon points="468.409,327.977 468.409,277.977 511.711,252.977 511.711,302.977 "/>
<polygon points="468.409,327.977 511.711,302.977 555.014,327.977 511.711,352.977 "/>
<polygon points="641.617,277.977 641.617,327.977 598.316,352.977 598.316,302.977 "/>
<polygon points="555.014,277.977 555.014,327.977 598.316,352.977 598.316,302.977 "/>
<polygon points="555.014,277.977 598.316,302.977 641.618,277.977 598.316,252.977 "/>
<polygon points="425.104,402.977 425.104,352.977 381.803,327.977 381.803,377.977 "/>
<polygon points="338.501,402.977 338.501,352.977 381.803,327.977 381.803,377.977 "/>
<polygon points="338.501,402.977 381.803,377.977 425.105,402.977 381.803,427.977 "/>
<polygon points="338.501,352.977 338.501,402.977 295.201,427.977 295.201,377.977 "/>
<polygon points="251.899,352.977 251.899,402.977 295.201,427.977 295.201,377.977 "/>
<polygon points="251.899,352.978 295.201,377.978 338.503,352.977 295.201,327.977 "/>
<polygon points="511.707,352.977 511.707,402.977 468.406,427.977 468.406,377.977 "/>
<polygon points="425.104,352.977 425.104,402.977 468.406,427.977 468.406,377.977 "/>
<polygon points="425.104,352.978 468.406,377.978 511.709,352.977 468.406,327.977 "/>
<polygon points="598.314,402.978 598.314,352.978 555.014,327.978 555.014,377.978 "/>
<polygon points="511.712,402.978 511.712,352.978 555.014,327.978 555.014,377.978 "/>
<polygon points="511.712,402.978 555.014,377.978 598.316,402.978 555.014,427.978 "/>
<polygon points="251.896,352.978 251.896,402.978 208.595,427.978 208.595,377.978 "/>
<polygon points="165.293,352.978 165.293,402.978 208.595,427.978 208.595,377.978 "/>
<polygon points="165.293,352.979 208.595,377.979 251.898,352.978 208.595,327.978 "/>
<polygon points="165.293,402.977 165.293,352.977 121.992,327.977 121.992,377.977 "/>
<polygon points="78.69,402.977 78.69,352.977 121.992,327.977 121.992,377.977 "/>
<polygon points="78.69,402.977 121.992,377.977 165.295,402.977 121.992,427.977 "/>
<polygon points="121.992,277.977 121.992,327.977 78.69,352.977 78.69,302.977 "/>
<polygon points="35.389,277.977 35.389,327.977 78.69,352.977 78.69,302.977 "/>
<polygon points="35.389,277.977 78.69,302.978 121.993,277.977 78.69,252.977 "/>
<polygon points="684.918,252.961 684.918,202.961 641.617,177.961 641.617,227.961 "/>
<polygon points="598.315,252.961 598.315,202.961 641.617,177.961 641.617,227.961 "/>
<polygon points="598.315,252.961 641.617,227.961 684.92,252.961 641.617,277.961 "/>
<polygon points="641.614,177.961 641.614,127.961 598.313,102.961 598.313,152.961 "/>
<polygon points="555.012,177.961 555.012,127.961 598.313,102.961 598.313,152.961 "/>
<polygon points="555.012,177.961 598.313,152.961 641.616,177.961 598.313,202.961 "/>
<polygon points="728.221,177.961 728.221,127.961 684.92,102.961 684.92,152.961 "/>
<polygon points="641.618,177.961 641.618,127.961 684.92,102.961 684.92,152.961 "/>
<polygon points="641.618,177.961 684.92,152.961 728.223,177.961 684.92,202.961 "/>
<polygon points="728.221,277.978 728.221,327.978 684.92,352.978 684.92,302.978 "/>
<polygon points="641.617,277.978 641.617,327.978 684.92,352.978 684.92,302.978 "/>
<polygon points="641.617,277.978 684.92,302.979 728.223,277.978 684.92,252.978 "/>
<polygon points="381.801,477.978 381.801,427.978 338.5,402.978 338.5,452.978 "/>
<polygon points="295.199,477.978 295.199,427.978 338.5,402.978 338.5,452.978 "/>
<polygon points="295.199,477.978 338.5,452.978 381.803,477.978 338.5,502.978 "/>
<polygon points="468.408,427.978 468.408,477.978 425.107,502.978 425.107,452.978 "/>
<polygon points="381.805,427.978 381.805,477.978 425.107,502.978 425.107,452.978 "/>
<polygon points="381.805,427.979 425.107,452.979 468.41,427.978 425.107,402.978 "/>
<polygon points="425.106,552.978 425.106,502.978 381.806,477.978 381.806,527.978 "/>
<polygon points="338.504,552.978 338.504,502.978 381.806,477.978 381.806,527.978 "/>
<polygon points="338.504,552.978 381.806,527.978 425.108,552.978 381.806,577.978 "/>
<polygon points="684.918,402.977 684.918,352.977 641.617,327.977 641.617,377.977 "/>
<polygon points="598.315,402.977 598.315,352.977 641.617,327.977 641.617,377.977 "/>
<polygon points="598.315,402.977 641.617,377.977 684.92,402.977 641.617,427.977 "/>
<polygon points="728.219,427.979 728.219,477.979 684.918,502.979 684.918,452.979 "/>
<polygon points="641.615,427.979 641.615,477.979 684.918,502.979 684.918,452.979 "/>
<polygon points="641.615,427.979 684.918,452.979 728.221,427.979 684.918,402.979 "/>
<polygon points="425.106,52.96 425.106,102.96 381.806,127.96 381.806,77.96 "/>
<polygon points="338.503,52.96 338.503,102.96 381.806,127.96 381.806,77.96 "/>
<polygon points="338.503,52.96 381.806,77.961 425.108,52.96 381.806,27.96 "/>
<polygon points="121.992,127.961 121.992,177.961 78.69,202.961 78.69,152.961 "/>
<polygon points="35.389,127.961 35.389,177.961 78.69,202.961 78.69,152.961 "/>
<polygon points="35.389,127.961 78.69,152.961 121.993,127.961 78.69,102.961 "/>
<polygon points="165.292,52.961 165.292,102.961 121.991,127.961 121.991,77.961 "/>
<polygon points="78.689,52.961 78.689,102.961 121.991,127.961 121.991,77.961 "/>
<polygon points="78.689,52.961 121.991,77.961 165.293,52.961 121.991,27.961 "/>
<polygon points="251.896,102.961 251.896,52.961 208.595,27.961 208.595,77.961 "/>
<polygon points="165.293,102.961 165.293,52.961 208.595,27.961 208.595,77.961 "/>
<polygon points="165.293,102.961 208.595,77.961 251.897,102.961 208.595,127.961 "/>
<polygon points="684.919,52.961 684.919,102.961 641.618,127.961 641.618,77.961 "/>
<polygon points="598.315,52.961 598.315,102.961 641.618,127.961 641.618,77.961 "/>
<polygon points="598.315,52.962 641.618,77.962 684.921,52.961 641.618,27.961 "/>
<polygon points="598.312,52.962 598.312,102.962 555.012,127.962 555.012,77.962 "/>
<polygon points="511.709,52.962 511.709,102.962 555.012,127.962 555.012,77.962 "/>
<polygon points="511.709,52.963 555.012,77.963 598.314,52.962 555.012,27.962 "/>
<polygon points="208.595,477.979 208.595,427.979 165.294,402.979 165.294,452.979 "/>
<polygon points="121.993,477.979 121.993,427.979 165.294,402.979 165.294,452.979 "/>
<polygon points="121.993,477.979 165.294,452.979 208.597,477.979 165.294,502.979 "/>
</svg>
